<?xml version="1.0" encoding="UTF-8" standalone="no"?>
<!-- Created with Inkscape (http://www.inkscape.org/) -->

<svg
   xmlns:dc="http://purl.org/dc/elements/1.1/"
   xmlns:cc="http://creativecommons.org/ns#"
   xmlns:rdf="http://www.w3.org/1999/02/22-rdf-syntax-ns#"
   xmlns:svg="http://www.w3.org/2000/svg"
   xmlns="http://www.w3.org/2000/svg"
   xmlns:sodipodi="http://sodipodi.sourceforge.net/DTD/sodipodi-0.dtd"
   xmlns:inkscape="http://www.inkscape.org/namespaces/inkscape"
   id="svg3066"
   version="1.1"
   inkscape:version="0.48.2 r9819"
   width="600"
   height="220"
   sodipodi:docname="crayonHeader.png">
  <metadata
     id="metadata3072">
    <rdf:RDF>
      <cc:Work
         rdf:about="">
        <dc:format>image/svg+xml</dc:format>
        <dc:type
           rdf:resource="http://purl.org/dc/dcmitype/StillImage" />
        <dc:title></dc:title>
      </cc:Work>
    </rdf:RDF>
  </metadata>
  <defs
     id="defs3070" />
  <sodipodi:namedview
     pagecolor="#ffffff"
     bordercolor="#666666"
     borderopacity="1"
     objecttolerance="10"
     gridtolerance="10"
     guidetolerance="10"
     inkscape:pageopacity="0"
     inkscape:pageshadow="2"
     inkscape:window-width="1040"
     inkscape:window-height="664"
     id="namedview3068"
     showgrid="false"
     inkscape:zoom="1.35"
     inkscape:cx="277.58518"
     inkscape:cy="163.08152"
     inkscape:window-x="0"
     inkscape:window-y="0"
     inkscape:window-maximized="0"
     inkscape:current-layer="svg3066" />
  <g
     id="g3212"
     transform="translate(173.33333,-291.11111)">
    <path
       inkscape:connector-curvature="0"
       id="path3142"
       d="m 114.10782,507.34519 c -0.25646,-0.70909 -2.2256,-1.32361 -4.45269,-1.38956 -2.19609,-0.065 -4.80916,-0.53666 -5.80681,-1.04807 -1.18857,-0.60927 -2.28497,-0.5389 -3.18026,0.20412 -1.059379,0.87921 -1.606429,0.68536 -2.435019,-0.86288 -0.58777,-1.09826 -1.97747,-2.28528 -3.08822,-2.63782 -1.11075,-0.35254 -3.42096,-1.92097 -5.1338,-3.48541 -1.90097,-1.73626 -3.73098,-2.60776 -4.69728,-2.23695 -1.02997,0.39523 -0.78484,-0.24493 0.70163,-1.83232 2.26192,-2.41551 2.26407,-2.44297 0.21576,-2.75934 -2.25142,-0.34774 -2.77927,-1.77699 -0.88898,-2.40709 0.64895,-0.21631 0.92316,-1.06239 0.60935,-1.88017 -0.42353,-1.10369 -2.01984,-1.441 -6.19436,-1.30889 -3.09308,0.0979 -5.86885,-0.21854 -6.16836,-0.70316 -0.29952,-0.48463 -1.02312,-0.88114 -1.608,-0.88114 -0.67059,0 -0.60356,0.55411 0.18146,1.5 0.78502,0.94589 0.85205,1.5 0.18146,1.5 -0.58488,0 -1.28109,-0.35219 -1.54713,-0.78265 -0.79819,-1.2915 -11.5264,-0.55117 -13.30786,0.91835 -1.49181,1.23058 -1.53985,1.15022 -0.49019,-0.81996 1.5983,-2.99995 1.45781,-3.8047 -0.39566,-2.26646 -0.85766,0.7118 -3.84827,1.36951 -6.64579,1.46159 -3.71338,0.12222 -5.46866,0.68323 -6.50245,2.07827 -1.30403,1.75971 -1.5132,1.78002 -2.64433,0.25676 -0.99787,-1.3438 -2.05906,-1.50219 -5.65674,-0.84431 -2.43564,0.44539 -4.59258,1.30223 -4.79321,1.9041 -0.63541,1.90624 -3.1981,1.18049 -3.1981,-0.90569 0,-2.00716 -1.52474,-2.50334 -4.35507,-1.41724 -0.92929,0.3566 -1.2738,1.22979 -0.88774,2.25 0.56284,1.48739 0.44045,1.47846 -1.13457,-0.0828 -0.97101,-0.9625 -2.18333,-1.75 -2.69405,-1.75 -0.51071,0 -0.9641,-0.7875 -1.00752,-1.75 -0.0472,-1.04544 -0.28201,-1.24674 -0.58333,-0.5 -0.62416,1.54683 -4.97149,1.65158 -5.904299,0.14228 -0.42434,-0.68661 -2.1575183,-0.8722 -4.5590083,-0.48819 -3.06391,0.48998 -3.87441,0.30332 -3.87441,-0.89223 0,-2.04233 -1.97581997,-1.91189 -3.60795,0.23818 -1.26518,1.66667 -1.32996,1.66667 -1.36025,0 -0.0288,-1.58631 -0.21888,-1.56292 -2.0318,0.25 -1.1,1.1 -2.01431,2.5625 -2.0318,3.25 -0.0196,0.76877 -0.53886,0.58226 -1.34888,-0.48446 -1.4979403,-1.97264 -2.6193207,-1.33712 -2.6193207,1.48446 0,1.09126 -0.53831,1.73532 -1.25,1.49556 -0.6875,-0.2316 -1.73562,0.23787 -2.32917,1.04328 -0.84939,1.1526 -1.52736,1.22451 -3.18425,0.33777 -1.15781,-0.61963 -3.21755,-1.12661 -4.57722,-1.12661 -2.03941,0 -2.388,0.39383 -1.99152,2.25 0.46857,2.19369 0.4412,2.20142 -1.09362,0.30887 -1.55831,-1.92151 -1.58906,-1.92151 -3.04242,0 -0.8075,1.06762 -1.4825,2.31438 -1.5,2.77059 -0.0175,0.4562 -1.43801,0.52059 -3.15672,0.1431 -2.15878,-0.47414 -3.39074,-0.26683 -3.98469,0.67055 -0.64342,1.01545 -0.86362,1.03937 -0.87508,0.0951 -0.0111,-0.91097 -1.12734,-1.08399 -4.01477,-0.62228 -3.90576,0.62456 -4.01506,0.56152 -4.66563,-2.69137 -0.56401,-2.82005 -0.78337,-3.03135 -1.43026,-1.37772 -0.67034,1.71356 -0.7727,1.73615 -0.83436,0.18414 -0.0548,-1.37868 -0.62197,-1.63059 -2.57029,-1.14159 -1.50758,0.37838 -2.5,0.19991 -2.5,-0.44957 0,-0.59284 -0.74659,-0.79053 -1.66074,-0.43973 -1.32696,0.5092 -1.54354,0.18912 -1.07762,-1.59256 0.37408,-1.43049 0.0753,-2.42472 -0.83352,-2.77346 -0.77915,-0.29898 -1.16766,-0.94646 -0.86336,-1.43882 0.3043,-0.49237 0.12486,-0.89522 -0.39875,-0.89522 -1.66624,0 -2.2088,3.04635 -0.64915,3.64484 0.81573,0.31303 1.44761,1.30849 1.40419,2.21215 -0.0493,1.02494 -0.26768,1.17579 -0.58067,0.401 -0.37134,-0.91926 -1.01708,-0.9662 -2.48497,-0.18061 -1.36035,0.72804 -2.37213,0.73867 -3.22137,0.0339 -0.68096,-0.56514 -2.303105,-0.74904 -3.604755,-0.40865 -1.96015,0.51259 -2.25107,0.31776 -1.69383,-1.13439 0.47842,-1.24676 0.0938,-1.90469 -1.33133,-2.27737 -1.102269,-0.28832 -2.004129,-0.92168 -2.004129,-1.40753 0,-0.48585 -0.675,-0.88337 -1.5,-0.88337 -0.825,0 -1.5,0.45 -1.5,1 0,0.55 -0.42203,1 -0.93785,1 -1.28871,0 -0.89244,-3.99126 0.40065,-4.03544 0.57046,-0.0195 -0.0651,-0.64589 -1.41242,-1.39201 -1.34729,-0.74612 -3.03479,-1.13203 -3.75,-0.85758 -0.720167,0.27636 -1.30038,-0.18794 -1.30038,-1.04059 0,-1.25448 2.39313,-2.76239 5,-3.15051 2.39153,-0.35605 6.973099,-3.31301 7.346669,-4.74155 0.48442,-1.85241 4.65333,-2.55329 4.65333,-0.78232 0,2.002 1.855415,0.93378 2.681235,-1.54368 l 0.84789,-2.54367 2.30155,2.14423 c 2.65178,2.4705 4.17063,1.7761 2.38148,-1.08879 -1.5888,-2.54407 -1.53147,-2.96809 0.40135,-2.96809 1.21925,0 1.50731,-0.72354 1.1789,-2.96113 -0.31002,-2.11231 0.0158,-3.07123 1.1365,-3.34524 1.36885,-0.33467 1.35123,-0.4801 -0.13691,-1.12975 -1.7901,-0.78147 -9.79199,2.18375 -9.79199,3.62857 0,0.44415 -0.675005,0.80755 -1.500005,0.80755 -0.825,0 -1.5,-0.375 -1.5,-0.83333 0,-0.45834 -0.5625,-0.88573 -1.25,-0.94978 -3.831419,-0.35689 -5.331759,-0.84469 -6.049689,-1.96689 -0.43983,-0.6875 -1.67733,-1.25 -2.75,-1.25 -1.07267,0 -1.95031,-0.44396 -1.95031,-0.98658 0,-1.26807 -6.541561,-4.01342 -9.563107,-4.01342 -1.275372,0 -2.584829,-0.43035 -2.909902,-0.95633 -0.325073,-0.52598 -1.193562,-0.72511 -1.929975,-0.44253 -0.736413,0.28259 -1.647754,-0.29098 -2.025204,-1.27459 -0.377449,-0.98362 -0.235798,-1.93856 0.314781,-2.12208 0.550579,-0.18353 0.729633,-1.09211 0.3979,-2.01908 -0.331734,-0.92696 -0.235359,-1.35179 0.214167,-0.94407 1.319926,1.1972 3.501339,-1.27667 3.501339,-3.97075 0,-1.87395 0.396003,-2.33259 1.611342,-1.86622 1.153001,0.44245 1.446374,0.18844 1.031384,-0.89301 -0.422675,-1.10147 0.101844,-1.51134 1.934114,-1.51134 1.382739,0 3.618616,-1.10455 4.968616,-2.45455 2.400905,-2.4009 3.059345,-5.74665 2.741855,-13.93225 -0.12715,-3.27838 -2.11025,-5.00503 -3.972925,-3.45915 -0.899586,0.74659 -1.98407,0.46434 -3.847362,-1.00133 -1.441505,-1.13389 -3.298681,-1.77081 -4.178725,-1.43311 -1.266384,0.48596 -1.481981,0.0739 -1.075073,-2.0547 0.279939,-1.46441 -0.01879,-3.38433 -0.663848,-4.26649 -1.696216,-2.31972 -0.732699,-7.39842 1.403606,-7.39842 0.949292,0 2.260966,-1.17415 2.914829,-2.60923 0.861854,-1.89156 1.731145,-2.46741 3.160515,-2.09362 2.147336,0.56154 2.266968,0.21716 0.971673,-2.79715 -0.472686,-1.1 -0.891058,-1.4375 -0.929715,-0.75 -0.113549,2.01944 -2.827519,1.43468 -4.513581,-0.97251 -1.719738,-2.45527 -2.164641,-8.27125 -0.556704,-7.27749 0.55,0.33992 1,-0.0505 1,-0.86766 0,-0.81713 0.7875,-1.69149 1.75,-1.94302 1.619967,-0.42334 1.622299,-0.46594 0.03139,-0.57332 -1.146323,-0.0774 -1.514045,-0.64911 -1.104283,-1.71693 0.868057,-2.26212 -1.418799,-3.33354 -4.952203,-2.32018 -1.777168,0.50969 -3.665327,0.47786 -4.616077,-0.0778 -0.980355,-0.57296 -1.120525,-0.95215 -0.358828,-0.97067 0.6875,-0.0167 1.25,-0.70541 1.25,-1.53041 0,-0.825 0.6199,-1.5 1.377555,-1.5 1.768824,0 3.582269,-2.19509 4.11994,-4.987 0.351422,-1.82479 0.177948,-1.98853 -1.037769,-0.97958 -0.834174,0.6923 -1.459726,0.78244 -1.459726,0.21034 0,-1.26057 4.6062,-3.17998 8.331437,-3.47172 l 2.831437,-0.22174 -2.192221,-1.77515 c -1.205721,-0.97633 -2.817367,-1.77515 -3.581436,-1.77515 -0.764069,0 -1.389216,-0.47656 -1.389216,-1.05902 0,-0.58246 -0.399595,-0.81205 -0.887988,-0.51021 -0.854854,0.52833 -2.600328,-7.34977 -2.311044,-10.43077 0.09273,-0.98766 -0.04847,-1.07305 -0.413398,-0.25 -0.304831,0.6875 -1.379238,1.25 -2.387571,1.25 -1.008333,0 -2.050304,0.5625 -2.31549,1.25 -0.265187,0.6875 -0.379877,0.0391 -0.254877,-1.44084 0.125002,-1.47996 0.727806,-3.29394 1.339564,-4.03106 0.611757,-0.73713 1.328569,-2.53295 1.592914,-3.99073 0.264346,-1.45778 2.354087,-4.34306 4.643871,-6.41174 5.882702,-5.31467 10.614719,-12.37398 8.974206,-13.38788 -1.596549,-0.98672 -0.539128,-3.98775 1.405093,-3.98775 0.79643,0 1.61796,-0.50972 1.82562,-1.1327 0.22954,-0.68864 1.248,-0.85643 2.59785,-0.428 1.22116,0.38758 1.9622,1.12229 1.64675,1.63269 -0.31544,0.5104 -0.08285,0.92801 0.51687,0.92801 0.59972,0 1.34942,-0.675 1.666,-1.5 0.31659,-0.825 1.25756,-1.5 2.09106,-1.5 1.227929,0 1.281269,0.28218 0.281139,1.48726 -0.678879,0.818 -0.945919,2.23883 -0.593429,3.15741 0.573469,1.49444 0.848269,1.44757 2.611879,-0.44545 1.08404,-1.16358 1.97098,-2.35941 1.97098,-2.65741 0,-0.298 0.9,-1.44181 2.000005,-2.54181 1.1,-1.1 2,-1.54619 2,-0.99153 0,0.9795 3.91003,-0.72952 5.01901,-2.19373 0.28545,-0.3769 2.66093,-0.94238 5.27884,-1.25663 3.69284,-0.44329 4.88943,-0.23364 5.33798,0.93526 0.31798,0.82864 1.205,1.50662 1.97116,1.50662 0.76615,0 1.39301,0.50249 1.39301,1.11664 0,0.65782 0.90311,0.88046 2.19796,0.54185 1.20888,-0.31613 2.72915,-0.13394 3.37837,0.40486 0.77132,0.64014 2.08896,0.63421 3.80203,-0.0171 1.82791,-0.69496 2.62164,-0.66908 2.62164,0.0855 0,0.64682 0.70408,0.78359 1.75,0.33994 0.9625,-0.40827 2.7625,-0.68645 4,-0.61819 1.38139,0.0762 2.25,-0.45064 2.25,-1.36469 0,-0.81884 0.64948,-1.4888 1.4433,-1.4888 0.79381,0 2.09683,-0.93305 2.89559,-2.07344 0.91134,-1.30112 1.70003,-1.6726 2.11739,-0.9973 0.45513,0.73642 1.25656,0.75961 2.53867,0.0734 2.55264,-1.36613 3.04226,-1.26325 2.36668,0.4973 -0.79459,2.07065 0.31812,1.87626 2.8702804,-0.50143 1.1815603,-1.10079 2.4031403,-1.58907 2.7146303,-1.08507 0.73812,1.19431 9.34606,0.87579 10.24574,-0.37912 0.9059,-1.26359 8.0802073,-1.71151 8.7984773,-0.54933 0.66708,1.07936 7.2894,1.28225 15.50924,0.47516 3.3,-0.32402 6.45,-0.55135 7,-0.50517 4.32702,0.36332 6.5839,0.79552 7.15943,1.37106 1.1254,1.12539 4.14159,0.75397 4.67829,-0.5761 0.30132,-0.74674 0.53617,-0.54544 0.58333,0.5 0.0434,0.9625 0.80209,1.75 1.68594,1.75 0.97588,0 1.39341,-0.55659 1.06314,-1.41724 -0.62857,-1.63803 1.63435,-2.78689 3.82987,-1.94439 0.825,0.31658 1.5,1.20246 1.5,1.96862 0,0.76615 0.50248,1.39301 1.11663,1.39301 0.6243,0 0.88603,-0.88181 0.59362,-2 -0.28766,-1.1 -0.12371,-2 0.36432,-2 0.48803,0 1.16968,1.125 1.51479,2.5 0.60279,2.40171 4.41064,3.72381 4.41064,1.53138 0,-0.53274 0.62948,-0.72706 1.39885,-0.43182 0.76937,0.29523 1.69668,0.0549 2.06069,-0.53409 0.43675,-0.70668 1.26641,-0.74732 2.43948,-0.11952 0.9777,0.52325 2.77697,0.69003 3.99839,0.37063 1.67397,-0.43776 2.35257,-0.0767 2.75613,1.46656 0.42509,1.62555 1.17054,1.96692 3.61861,1.6571 1.69577,-0.21461 3.69233,0.11531 4.43679,0.73316 1.03347,0.85771 1.66503,0.69742 2.67061,-0.67779 1.30071,-1.77883 4.19791,-1.23898 3.07774,0.57349 -0.31643,0.51199 0.12623,0.9309 0.98369,0.9309 0.85746,0 1.55902,-0.45 1.55902,-1 0,-0.55 -0.39541,-1 -0.87868,-1 -1.40532,0 -3.59087,-6.08405 -2.45796,-6.84236 0.54039,-0.3617 1.26674,-1.42863 1.61412,-2.37095 0.38511,-1.04468 1.72254,-1.72676 3.42706,-1.74777 10.781239,-0.13287 13.295459,0.0286 13.295459,0.85406 0,0.37478 0.97201,0.75463 2.16002,0.84412 1.18802,0.0895 2.48177,0.68329 2.875,1.31957 0.44393,0.71829 0.94458,0.78535 1.32064,0.17688 0.38653,-0.62542 2.69302,-0.4888 6.375,0.37761 7.13332,1.67856 7.98388,1.70338 6.46934,0.18884 -1.65042,-1.65042 -1.50302,-2.8 0.35902,-2.8 0.85746,0 1.27216,-0.46414 0.92157,-1.03141 -0.42819,-0.69283 3.40956,-0.93903 11.69098,-0.75 l 12.32843,0.28141 -0.13354,2.41681 c -0.13969,2.52813 3.12389,6.92617 4.28097,5.76909 0.90589,-0.90589 3.47013,1.31486 2.78962,2.41595 -0.29751,0.48138 0.17585,0.60019 1.05191,0.26401 1.02923,-0.39495 1.4899,-0.1294 1.30193,0.75052 -0.20634,0.96594 0.58107,1.26302 2.70911,1.0221 3.60555,-0.4082 4.709,-0.99129 4.01155,-2.1198 -0.618,-0.99994 1.45868,-0.79338 3.24551,0.32282 0.76285,0.47654 1.4834,0.19544 1.83276,-0.71498 0.31663,-0.82513 1.21346,-1.25551 1.99294,-0.95639 0.77948,0.29911 1.41724,0.0568 1.41724,-0.53839 0,-0.7068 0.78056,-0.7882 2.25,-0.23464 1.2375,0.46618 3.24818,0.47484 4.46817,0.0192 1.29371,-0.48312 2.46443,-0.42992 2.80902,0.12765 0.78509,1.2703 5.47281,1.23262 5.47281,-0.044 0,-0.55 0.675,-1 1.5,-1 0.825,0 1.5,0.675 1.5,1.5 0,1.89264 2.3909,1.8937 9.64484,0.004 4.42937,-1.1537 5.91285,-1.21996 6.48774,-0.28976 0.5548,0.89768 1.22838,0.76878 2.63511,-0.50429 1.03939,-0.94063 2.69696,-1.71024 3.6835,-1.71024 1.55848,0 1.61373,0.22125 0.42125,1.68723 -1.22349,1.50412 -1.15538,1.59328 0.62756,0.82152 2.14809,-0.9298 5.33758,-1.01242 9.77432,-0.25319 1.52588,0.26111 3.01715,0.0819 3.31394,-0.39837 0.29679,-0.48021 1.63584,-0.67433 2.97568,-0.43138 1.33983,0.24296 2.43606,0.0215 2.43606,-0.49203 0,-1.39126 3.80547,-4.93378 5.3,-4.93378 0.715,0 1.86666,0.5625 2.55925,1.25 1.00921,1.0018 1.13679,0.92814 0.64253,-0.37096 -0.38114,-1.00176 0.0127,-1.86249 1.03099,-2.25324 2.17385,-0.83419 3.51885,0.0761 2.81657,1.90622 -0.30983,0.80739 -0.11332,1.46798 0.43668,1.46798 0.55,0 1.25902,-0.675 1.57561,-1.5 0.31658,-0.825 1.46317,-1.5 2.54797,-1.5 1.0848,0 2.23798,-0.42977 2.56262,-0.95505 0.45814,-0.74129 7.43865,-0.82635 11.61726,-0.14156 0.32422,0.0531 1.14264,1.31064 1.81871,2.79446 0.77451,1.69987 1.4904,2.27524 1.93528,1.55542 0.53654,-0.86815 4.65653,-1.0862 4.65653,-0.24645 0,0.20926 4.41004,0.99245 7.16702,1.27281 1.19186,0.1212 2.50436,0.55787 2.91667,0.97037 0.4123,0.4125 1.57464,0.75 2.58298,0.75 1.00833,0 1.83333,0.45 1.83333,1 0,0.55 -0.46583,1 -1.03518,1 -0.71358,0 -0.71358,0.60092 0,1.93426 1.34418,2.51163 1.3121,3.35492 -0.0945,2.48556 -0.68927,-0.42599 -0.9398,-0.15658 -0.64259,0.69098 0.69193,1.97318 -3.15805,7.1299 -4.84099,6.48409 -1.93801,-0.74368 -1.73012,1.06168 0.36331,3.15511 1.78993,1.78993 7.80252,1.95301 6.70794,0.18194 -0.65433,-1.05873 0.8622,-1.27847 1.86975,-0.27092 1.18572,1.18572 6.63794,0.87142 7.12997,-0.41102 0.68345,-1.7814 6.47862,-1.57964 7.18071,0.25 0.69328,1.80666 2.42659,2.02396 1.99414,0.25 -0.1676,-0.6875 -0.11597,-0.9125 0.11472,-0.5 0.23069,0.4125 1.10508,0.75 1.94309,0.75 0.94352,0 1.30449,0.57113 0.94805,1.5 -0.43279,1.12786 0.16848,1.5 2.42357,1.5 2.20636,0 3.85019,0.97338 6.21861,3.6823 1.7707,2.02527 3.13009,3.98083 3.02088,4.34571 -0.10921,0.36487 0.40348,2.66384 1.13931,5.10883 1.88333,6.25783 0.35702,8.30495 -6.7834,9.09806 -1.53256,0.17022 -1.74618,0.80806 -1.26935,3.78999 0.38869,2.43073 0.0632,4.31361 -1.01068,5.84681 -1.48702,2.12301 -1.45522,2.29516 0.51934,2.81152 1.25195,0.32739 2.10335,1.35834 2.10335,2.54691 0,1.65618 0.51915,1.92067 3.04295,1.55026 2.13621,-0.31353 2.90178,-0.0787 2.56919,0.78796 -0.26056,0.67902 0.45356,1.47707 1.58694,1.77346 1.35675,0.35479 1.85776,1.06767 1.46667,2.08685 -0.79879,2.08161 6.36169,7.12838 7.52209,5.30164 0.56515,-0.88967 0.78577,-0.79192 0.79685,0.35303 0.0203,2.10313 8.79617,2.27502 11.16603,0.2187 1.74202,-1.51158 3.53288,-0.21721 2.34923,1.69797 -0.36058,0.58342 0.65628,1 2.44098,1 1.68246,0 3.05902,0.45 3.05902,1 0,0.55 0.44486,1 0.98857,1 2.09507,0 5.01143,3.5665 5.01143,6.12862 0,2.19181 -0.36684,2.58821 -2,2.16113 -1.50624,-0.39389 -2,-0.0307 -2,1.47117 0,3.56322 -5.79033,6.34537 -8.58782,4.12629 -1.03946,-0.82455 -5.94275,-1.21258 -9.66218,-0.76464 -0.9625,0.11592 -1.75,0.75566 -1.75,1.42165 0,0.66599 -0.76138,1.82849 -1.69196,2.58333 -0.96388,0.78186 -1.38718,0.86428 -0.98369,0.19154 1.04909,-1.74914 -0.90771,-2.52604 -2.2596,-0.89711 -0.79535,0.95834 -0.8311,1.60439 -0.11331,2.04801 1.76337,1.08982 1.16848,2.53001 -1.04506,2.53001 -1.27181,0 -2.30472,0.80726 -2.63142,2.05656 -0.29579,1.1311 -1.06384,1.8547 -1.70677,1.60798 -0.64292,-0.24671 -2.27128,0.16189 -3.61857,0.90801 -1.34729,0.74612 -1.99962,1.41003 -1.44962,1.47535 3.99629,0.47463 5.29361,0.69532 7.5,1.27586 1.375,0.36178 1.91872,0.39317 1.20826,0.0698 -0.99162,-0.4514 -1.02126,-0.91392 -0.12755,-1.99077 1.52266,-1.8347 2.91929,-1.78818 2.91929,0.0973 0,1.30234 1.81601,1.99772 4.23747,1.6226 0.40561,-0.0628 0.63061,0.89637 0.5,2.13158 -0.1696,1.60392 0.26272,2.20612 1.51253,2.10693 1.33927,-0.10629 1.73147,0.59782 1.67105,3 -0.0434,1.72639 -0.30592,2.57639 -0.58333,1.88889 -0.80661,-1.99898 -3.14105,-1.44501 -3.89288,0.9238 -0.47114,1.48442 -0.1564,2.56394 0.99245,3.404 1.07406,0.78538 1.29917,1.46704 0.62255,1.88522 -0.58291,0.36026 -1.09537,2.31596 -1.13879,4.346 -0.0434,2.03004 -0.28858,3.18049 -0.5448,2.55656 -0.30012,-0.73081 -1.28847,-0.40171 -2.77793,0.92499 -2.51418,2.23944 -6.57904,3.03174 -6.63012,1.29231 -0.0175,-0.59558 -0.6296,-0.29538 -1.36025,0.66712 -1.3789,1.81649 -5.19801,2.51375 -4.10795,0.75 0.33992,-0.55 0.14148,-1 -0.44098,-1 -0.58246,0 -1.05902,0.4539 -1.05902,1.00866 0,1.79349 -5.32379,7.08547 -6.01041,5.97449 -0.35722,-0.57799 -1.30585,-0.79902 -2.10808,-0.49118 -1.82541,0.70048 -2.30319,8.61395 -0.58723,9.72638 0.90631,0.58755 0.83324,1.03469 -0.29428,1.80065 -1.3076,0.8883 -1.2671,1.19721 0.31574,2.40831 1.56626,1.19843 1.63496,1.68088 0.5,3.51151 -1.10379,1.78035 -1.08327,2.26684 0.1274,3.02008 1.16859,0.72705 1.22023,1.38712 0.27144,3.46949 -0.76022,1.6685 -0.8106,2.57161 -0.14345,2.57161 0.66594,0 0.69975,0.58701 0.096,1.66592 -0.55458,0.99098 -0.57661,2.90615 -0.0544,4.72708 0.48286,1.68363 0.64162,3.80567 0.35281,4.71565 -0.31916,1.00557 0.17295,1.92507 1.25468,2.34435 1.69766,0.658 1.69852,0.7497 0.0187,1.98677 -1.55364,1.14416 -1.58422,1.44372 -0.25967,2.543 2.61642,2.17135 -0.91175,11.01714 -4.39426,11.01714 -0.92674,0 -2.25629,0.5625 -2.95455,1.25 -1.01854,1.00284 -1.70971,0.74222 -3.4956,-1.31813 -1.22432,-1.41248 -2.76832,-2.38738 -3.43112,-2.16644 -0.70419,0.23473 -0.97806,-0.18992 -0.65889,-1.02166 0.3004,-0.78284 -0.23567,-2.05794 -1.19128,-2.83356 -1.5122,-1.22738 -1.62873,-1.21573 -0.8988,0.0898 0.69407,1.2414 0.59931,1.27732 -0.54969,0.20836 -1.15984,-1.07905 -1.16641,-1.4288 -0.0399,-2.125 1.66017,-1.02604 0.39651,-1.76615 -2.61512,-1.53164 -1.2375,0.0964 -2.25,-0.37595 -2.25,-1.04958 0,-0.76722 -0.93398,-1.04625 -2.5,-0.74689 -1.375,0.26285 -2.5,1.10044 -2.5,1.86133 0,1.76207 -0.41388,1.73788 -4.2556,-0.24876 -1.82974,-0.94619 -3.29461,-1.21719 -3.48541,-0.64479 -0.45268,1.35803 -9.37972,-7.57909 -9.04154,-9.05175 0.34841,-1.51736 -3.77831,-5.67129 -5.63416,-5.67129 -0.77916,0 -1.65064,0.5625 -1.93662,1.25 -0.28598,0.6875 -0.43598,0.125 -0.33334,-1.25 0.15241,-2.04159 -0.22594,-2.45632 -2.06337,-2.26179 -1.2375,0.13102 -2.25,-0.20648 -2.25,-0.75 0,-0.54352 0.54,-0.98821 1.2,-0.98821 0.90893,0 0.91921,-0.28079 0.0424,-1.15762 -0.87682,-0.87682 -1.5783,-0.81618 -2.89196,0.25 -0.95388,0.77419 -1.4215,0.88573 -1.03913,0.24786 1.61319,-2.69118 -0.31707,-3.84044 -6.32209,-3.76412 -5.18252,0.0659 -5.9892,-0.1724 -5.9892,-1.76905 0,-1.46884 -0.50989,-1.7172 -2.5,-1.21771 -1.65454,0.41526 -2.5,0.21034 -2.5,-0.60595 0,-0.83353 -0.96004,-1.0414 -2.96123,-0.64116 -1.62867,0.32573 -3.23023,0.15698 -3.55901,-0.375 -0.86487,-1.39938 -2.5241,-1.18897 -2.22976,0.28275 0.1375,0.6875 -0.425,1.25 -1.25,1.25 -0.825,0 -1.42396,-0.45313 -1.33101,-1.00696 0.0929,-0.55383 -2.06859,-1.05036 -4.80341,-1.10341 -2.73481,-0.053 -5.4727,-0.59675 -6.08419,-1.20824 -0.81573,-0.81573 -1.43843,-0.66509 -2.33838,0.56566 -1.00139,1.36948 -1.50429,1.44698 -2.73914,0.42214 -0.86824,-0.72057 -2.57179,-0.98946 -3.99912,-0.63122 -1.40202,0.35188 -2.78236,0.14547 -3.16475,-0.47325 -0.37301,-0.60354 -1.10444,-0.83391 -1.62541,-0.51193 -0.52097,0.32197 -0.66057,1.04921 -0.31022,1.61608 0.40775,0.65975 -0.0967,0.63799 -1.40183,-0.0605 -1.12135,-0.60013 -3.42565,-0.81378 -5.12068,-0.47477 -2.2322,0.44644 -3.10124,0.23729 -3.15215,-0.75863 -0.0387,-0.75625 -0.45702,-0.475 -0.92971,0.625 -0.7349,1.71022 -0.86961,1.74644 -0.92971,0.25 -0.0761,-1.8949 -3.51819,-2.45234 -4.57582,-0.74105 -1.2627,2.04309 0.5945,4.99105 3.14435,4.99105 2.62957,0 3.84079,0.9054 6.6521,4.97251 2.11392,3.05818 2.21397,5.15846 0.20908,4.38912 -0.90891,-0.34878 -1.5,-0.003 -1.5,0.87639 0,1.94032 -3.22089,4.76198 -5.43573,4.76198 -1.28071,0 -1.59184,0.48964 -1.11201,1.75 0.53418,1.40315 0.41665,1.50225 -0.59301,0.5 -0.69259,-0.6875 -2.18175,-1.23569 -3.30925,-1.2182 -2.01747,0.0313 -2.0192,0.0551 -0.10887,1.5 1.9077,1.44292 1.9054,1.4682 -0.13337,1.4682 -1.23349,0 -2.28653,-0.8108 -2.59751,-2 -0.28766,-1.1 -1.04546,-2 -1.68402,-2 -0.70593,0 -0.9122,0.78393 -0.52623,2 0.74287,2.34059 -1.26213,2.78344 -2.14817,0.47448 -0.41833,-1.09017 -0.94047,-1.23084 -1.82959,-0.49294 -0.86806,0.72043 -2.26989,0.60402 -4.63709,-0.38506 -3.38556,-1.41458 -3.39902,-1.40913 -6.22432,2.52137 -1.55727,2.16645 -2.25726,3.81372 -1.55551,3.66058 0.70174,-0.15314 1.46077,0.57473 1.68671,1.61748 0.30455,1.40547 -0.003,1.73694 -1.19061,1.28138 -0.88078,-0.33798 -1.60142,-0.1311 -1.60142,0.45974 0,2.14221 -5.29193,7.36303 -7.14614,7.05011 -2.44601,-0.41279 -2.36531,1.01236 0.14614,2.58079 2.46641,1.5403 2.57549,3.79351 0.25,5.16408 -1.42055,0.83723 -1.49458,1.19957 -0.39324,1.92469 1.54875,1.0197 -0.19887,2.66793 -1.78766,1.68601 -0.512,-0.31644 -1.21658,-0.1131 -1.56574,0.45185 -0.34916,0.56496 -1.84275,0.98772 -3.3191,0.93948 -1.47634,-0.0482 -4.25926,0.21294 -6.18426,0.58039 -1.925,0.36744 -4.59722,0.62505 -5.93828,0.57245 -1.34105,-0.0526 -2.76925,0.43989 -3.17378,1.09444 -0.56086,0.90749 -1.10978,0.87946 -2.31172,-0.11807 -1.30462,-1.08273 -1.5817,-1.07165 -1.60802,0.0643 -0.0254,1.09696 -0.27633,1.07136 -1.25,-0.12756 -1.73014,-2.13037 -9.46203,-1.50544 -9.95267,0.80443 -0.2388,1.12424 -0.51509,1.2672 -0.81995,0.42425 z"
       style="fill:#dd5828;fill-opacity:1" />
    <path
       inkscape:connector-curvature="0"
       id="path3140"
       d="m 115.78021,496.05813 c 5.5349,-0.94913 6.9255,-1.53127 6.56911,-2.75 -2.66364,-9.1087 -3.07659,-43.48665 -0.6432,-53.546 0.53219,-2.2 1.92138,-11.875 3.08709,-21.5 2.85969,-23.61165 2.14193,-21.48374 7.28305,-21.59171 5.1974,-0.10916 11.56631,-3.11376 19.04867,-8.98641 11.03978,-8.66474 13.5704,-14.13462 13.61195,-29.42188 0.0322,-11.84669 -2.28439,-23.01905 -6.62029,-31.92802 l -2.64175,-5.42802 -2.08936,10.34579 c -1.14914,5.69018 -2.56081,10.50244 -3.13703,10.69391 -2.13033,0.70787 -6.85299,-5.81189 -8.99783,-12.42173 l -2.19419,-6.76193 -0.70953,6.5 c -0.85521,7.83458 -2.3489,14 -3.39177,14 -1.43184,0 -4.55221,-10.48146 -5.20982,-17.5 l -0.65588,-7 -0.14665,6.76509 c -0.16094,7.42419 -2.93521,18.97205 -4.43756,18.47127 -0.52162,-0.17387 -1.97324,-3.04224 -3.22581,-6.37415 -1.79976,-4.7875 -2.19141,-7.50557 -1.86741,-12.96012 l 0.40998,-6.90209 -2.57496,8 c -1.41623,4.4 -3.06907,9.6875 -3.67299,11.75 -2.23781,7.64264 -4.73898,3.07516 -5.52782,-10.09456 -0.31809,-5.31049 -0.79389,-8.98044 -1.05734,-8.15544 -1.64126,5.13964 -7.400075,16.14232 -8.712495,16.64595 -2.42592,0.93091 -2.60723,0.13607 -1.70058,-7.45517 0.46487,-3.89235 0.47319,-6.84706 0.0185,-6.56604 -2.58404,1.59702 -7.73754,16.64024 -11.28691,32.94684 -1.66444,7.64679 -1.66666,8.38199 -0.0422,13.9699 2.35226,8.0915 4.68957,12.31641 9.19623,16.62308 5.10119,4.87482 10.946225,7.76522 17.201035,8.50601 5.95075,0.70478 5.578,-0.49345 5.23536,16.82943 -0.32058,16.20803 -5.36634,59.90152 -8.62611,74.69741 -1.71303,7.77523 -1.88164,11.80259 -0.49413,11.80259 0.53979,0 4.14098,-0.5418 8.00264,-1.204 z"
       style="fill:#000000" />
    <path
       inkscape:connector-curvature="0"
       id="path3128"
       d="m 181.25911,435.66263 c 0.22013,-0.6875 0.59392,-13.54042 0.83066,-28.56204 0.26294,-16.68467 0.82831,-27.70992 1.45298,-28.33459 2.22355,-2.22355 7.09782,6.42127 16.91907,30.00699 3.58185,8.6018 7.62049,17.98195 8.97477,20.84478 2.34206,4.9509 2.58382,5.14979 4.94957,4.07188 1.36798,-0.62329 2.27419,-1.61561 2.01379,-2.20514 -0.26039,-0.58953 -2.02011,-4.89688 -3.91049,-9.57188 -9.44278,-23.3525 -13.17075,-32.21168 -16.7973,-39.91728 -2.17881,-4.6295 -3.60926,-8.73669 -3.17876,-9.12708 0.43049,-0.39039 3.11273,-1.46549 5.96052,-2.38911 14.5324,-4.71327 19.73857,-15.55407 14.30103,-29.77902 -2.2091,-5.77914 -4.67521,-8.94063 -10.00127,-12.82138 -5.46068,-3.97883 -8.91198,-5.13264 -17.04915,-5.69976 -12.64749,-0.88147 -11.88849,-2.70382 -11.37877,27.32039 0.23884,14.06798 0.68005,25.97586 0.98047,26.46195 0.30042,0.4861 0.74792,11.13649 0.99444,23.66755 0.58379,29.67491 1.29305,37.28374 3.47545,37.28374 0.58452,0 1.24287,-0.5625 1.46299,-1.25 z"
       style="fill:#000000" />
    <path
       inkscape:connector-curvature="0"
       id="path3124"
       d="m 236.54477,434.89714 c 3.00963,-0.0135 3.06411,-0.1089 4.71921,-8.26365 0.92094,-4.5375 2.60917,-16.575 3.75163,-26.75 1.14245,-10.175 2.26718,-19.0625 2.4994,-19.75 0.63288,-1.87366 4.45492,-1.50507 5.18473,0.5 0.35034,0.9625 1.8285,3.55 3.28482,5.75 1.45631,2.2 4.96687,8.57732 7.80124,14.17182 3.99013,7.87576 12.38864,22.15067 14.82517,25.19828 0.76344,0.95491 5.51513,-1.0817 5.04417,-2.16197 -0.28968,-0.66447 -2.32816,-5.48313 -4.52995,-10.70813 -5.338,-12.66745 -10.626,-22.71143 -17.37401,-33 -4.37044,-6.66354 -5.32864,-8.79757 -4.435,-9.87726 0.62696,-0.75749 7.54388,-6.73314 15.37092,-13.27923 7.82705,-6.54608 14.49523,-12.32952 14.81819,-12.85207 0.54864,-0.88771 -0.0914,-2.47157 -2.39445,-5.92529 -1.01481,-1.52185 -4.46716,0.89791 -13.68463,9.59156 -6.55377,6.18134 -18.05373,15.34229 -19.25953,15.34229 -0.7857,0 -1.04573,-6.07151 -0.88869,-20.75 l 0.22201,-20.75 -4.5,0 -4.5,0 -0.6884,5.5 c -0.37862,3.025 -0.96679,8.875 -1.30704,13 -1.19928,14.53928 -1.39981,16.58743 -2.54551,26 -0.63598,5.225 -1.51758,14 -1.95909,19.5 -0.7087,8.82841 -4.51247,36.08126 -6.54644,46.90325 -0.70654,3.75927 -0.64544,3.87966 1.65644,3.26366 1.31452,-0.35178 3.76019,-0.64575 5.43481,-0.65326 z"
       style="fill:#000000" />
    <path
       inkscape:connector-curvature="0"
       id="path3122"
       d="m 18.213776,425.3835 c 0.14694,-2.75 0.96589,-9.5 1.81988,-15 0.85398,-5.5 1.70053,-11.125 1.88121,-12.5 0.18067,-1.375 0.62303,-4.75 0.98302,-7.5 1.97473,-15.08529 2.85283,-18.59934 4.46649,-17.87424 0.87023,0.39104 8.41687,0.90025 16.77033,1.13157 12.1428,0.33625 16.35341,0.0861 21,-1.24777 13.300751,-3.81807 18.591901,-16.0233 12.876011,-29.70141 -3.88098,-9.28717 -9.6474,-12.55578 -27.961891,-15.84977 -7.47932,-1.34521 -25.2621,-0.6985 -26.94034,0.97974 -0.53204,0.53204 -1.0885,6.50112 -1.23658,13.26461 -0.26133,11.9365 -0.83469,16.94617 -5.92831,51.79727 -3.51676,24.06207 -4.49699,31.71387 -4.49699,35.10421 0,2.80762 0.23106,3.00023 3.25,2.70915 3.14983,-0.3037 3.25823,-0.46746 3.51717,-5.31336 z"
       style="fill:#000000" />
    <path
       inkscape:connector-curvature="0"
       id="path3118"
       d="m -15.44961,423.90047 c 11.9542704,-4.33916 15.13123027,-9.2337 16.08225027,-24.77685 0.53603003,-8.76071 0.36188,-10.91095 -1.12096,-13.84048 -4.47488987,-8.84072 -8.16605017,-10.71379 -23.59776027,-11.97459 -13.77132,-1.12515 -16.51185,-2.10102 -19.28818,-6.86829 -1.93821,-3.32813 -1.93925,-3.45181 -0.0755,-9 3.58027,-10.65793 16.13057,-20.2085 31.18977,-23.73492 6.9743001,-1.63317 15.3885504,-1.35042 17.7337503,0.59593 0.95251,0.79051 1.42482,0.48523 1.88047,-1.21543 1.22144,-4.55878 0.9485,-4.77142 -6.1142,-4.76352 -10.5319702,0.0118 -18.7351803,1.74408 -26.7308503,5.64483 -12.55385,6.12448 -17.75589,11.71098 -22.79963,24.48468 -2.20676,5.58879 -2.46283,7.20873 -1.62129,10.25651 1.82204,6.5989 6.07257,8.52048 22.32273,10.09162 6.19376,0.59884 13.67904,3.39034 16.89488,6.30064 5.6206804,5.08664 6.5463504,14.88769 2.2378201,23.69401 -3.3756501,6.89959 -7.3804801,10.01229 -15.6215101,12.14162 -6.27389,1.62106 -6.64129,1.60493 -14.93215,-0.65539 -8.17239,-2.22802 -12.910805,-5.19847 -14.130775,-8.85838 -0.78382,-2.35146 -4.869229,-0.34233 -4.869229,2.3946 0,6.91097 3.514099,9.97209 13.000004,11.32429 12.61227,1.79786 22.31027,1.39075 29.56034,-1.24088 z"
       style="fill:#000000" />
    <path
       style="fill:#ffffff;fill-opacity:1"
       d="m 120.49621,489.25748 c 4.92411,-0.89831 6.16126,-1.44929 5.84419,-2.60274 -2.36969,-8.62101 -2.73708,-41.15821 -0.57223,-50.67894 0.47348,-2.0822 1.70937,-11.23917 2.74645,-20.34881 2.54411,-22.34737 1.90556,-20.3334 6.47934,-20.43559 4.62386,-0.10337 10.28994,-2.94704 16.9466,-8.50524 9.82149,-8.2008 12.07286,-13.3778 12.10982,-27.84651 0.0287,-11.21238 -2.03229,-21.78653 -5.88971,-30.21846 l -2.35024,-5.13739 -1.85878,9.79183 c -1.02232,5.3855 -2.27821,9.94009 -2.79084,10.1213 -1.89525,0.66998 -6.09676,-5.50068 -8.00491,-11.75661 l -1.95207,-6.39985 -0.63121,6.15195 c -0.76085,7.41507 -2.08971,13.25038 -3.0175,13.25038 -1.27382,0 -4.04985,-9.92024 -4.6349,-16.56298 l -0.58349,-6.6252 -0.13047,6.40288 c -0.1432,7.02666 -2.61129,17.95621 -3.94786,17.48225 -0.46404,-0.16456 -1.75549,-2.87937 -2.86983,-6.03287 -1.60115,-4.53116 -1.94959,-7.10369 -1.66133,-12.26618 l 0.36472,-6.53253 -2.29079,7.57165 c -1.25995,4.16441 -2.73039,9.16878 -3.26767,11.12087 -1.99088,7.23342 -4.21604,2.91048 -4.91783,-9.55405 -0.28299,-5.02617 -0.70628,-8.4996 -0.94067,-7.71878 -1.46012,4.86444 -6.58344,15.27799 -7.75103,15.75467 -2.15821,0.88104 -2.31951,0.12877 -1.51292,-7.05601 0.41357,-3.68393 0.42097,-6.48042 0.0164,-6.21445 -2.29887,1.5115 -6.88368,15.74924 -10.041365,31.18274 -1.480765,7.23733 -1.482738,7.93318 -0.03754,13.22187 2.092688,7.65826 4.172065,11.65694 8.181405,15.73303 4.53826,4.61378 9.73829,7.34943 15.30288,8.05054 5.29405,0.66706 4.96243,-0.467 4.65762,15.92833 -0.28522,15.34018 -4.77416,56.69415 -7.6742,70.6978 -1.524,7.35893 -1.67399,11.17063 -0.4396,11.17063 0.4802,0 3.68401,-0.51278 7.11952,-1.13953 z"
       id="path3188"
       inkscape:connector-curvature="0" />
    <path
       style="fill:#ffffff;fill-opacity:1"
       d="m 23.852536,423.64347 c 0.135218,-2.58768 0.888837,-8.93927 1.674701,-14.11463 0.785855,-5.17537 1.564872,-10.46835 1.731138,-11.76219 0.166258,-1.29384 0.573329,-4.46964 0.904601,-7.05732 1.817198,-14.19489 2.625249,-17.50152 4.110181,-16.81922 0.800808,0.36796 7.745424,0.84711 15.432496,1.06478 11.174122,0.3164 15.048835,0.081 19.324749,-1.17412 12.239698,-3.59271 17.108753,-15.07753 11.848841,-27.9483 -3.571379,-8.73899 -8.877789,-11.81468 -25.731262,-14.91424 -6.882666,-1.26581 -23.246845,-0.65727 -24.791205,0.92191 -0.489597,0.50064 -1.001666,6.1174 -1.137933,12.48167 -0.240483,11.23196 -0.768104,15.94593 -5.455386,48.73996 -3.236215,22.64182 -4.138248,29.84197 -4.138248,33.0322 0,2.6419 0.212627,2.82314 2.990735,2.54924 2.898556,-0.28577 2.998308,-0.43987 3.236592,-4.99974 z"
       id="path3190"
       inkscape:connector-curvature="0" />
    <path
       style="fill:#dd5828;fill-opacity:1"
       d="m 39.036544,367.50131 c -1.65,-0.38769 -2.94926,-1.15047 -2.88725,-1.69506 0.12219,-1.07298 2.42849,-25.71429 2.71334,-28.99018 0.14842,-1.70684 0.90682,-2.00324 5.17391,-2.02207 2.75,-0.0121 8.1077,0.55367 11.90599,1.25736 16.014142,2.96684 22.527922,15.92958 12.70172,25.27703 -2.0412,1.94174 -5.48797,4.10589 -7.65949,4.80921 -4.74351,1.53635 -17.76901,2.34567 -21.94822,1.36371 z"
       id="path3192"
       inkscape:connector-curvature="0" />
    <path
       style="fill:#ffffff;fill-opacity:1"
       d="m -13.060048,419.91259 c 11.0828376,-4.09578 14.02820615,-8.71579 14.9098995,-23.38714 0.4969549,-8.26933 0.3355,-10.29896 -1.03924515,-13.06418 -4.14868315,-8.34485 -7.57076805,-10.11286 -21.87755035,-11.30295 -12.76743,-1.06204 -15.308183,-1.98317 -17.882126,-6.48305 -1.79692,-3.14146 -1.797884,-3.2582 -0.07,-8.4952 3.319278,-10.06014 14.954697,-19.07502 28.916124,-22.40365 6.4658931,-1.54157 14.2667681,-1.27468 16.4410096,0.56251 0.8830747,0.74617 1.3209547,0.45801 1.7433889,-1.14726 1.1324005,-4.30308 0.879357,-4.5038 -5.668492,-4.49634 -9.7642187,0.0111 -17.3694385,1.64626 -24.7822465,5.32822 -11.63871,5.78096 -16.461536,11.05412 -21.137602,23.11135 -2.045893,5.27532 -2.283296,6.8044 -1.503102,9.68124 1.689218,6.22877 5.629897,8.04257 20.695466,9.52559 5.742252,0.56525 12.681877,3.20017 15.6632908,5.94724 5.2109486,4.80133 6.0691398,14.05265 2.0746895,22.36503 -3.1295755,6.5126 -6.8424643,9.45071 -14.4827463,11.46061 -5.816541,1.53014 -6.157159,1.51491 -13.843638,-0.61863 -7.576646,-2.10305 -11.969644,-4.90689 -13.100682,-8.36152 -0.726682,-2.21957 -4.514276,-0.32313 -4.514276,2.26029 0,6.52334 3.257931,9.41276 12.052341,10.68912 11.692871,1.69702 20.683914,1.31274 27.405474,-1.17128 z"
       id="path3194"
       inkscape:connector-curvature="0" />
    <path
       style="fill:#ffffff;fill-opacity:1"
       d="m 186.27865,431.62556 c 0.2059,-0.6424 0.55553,-12.65215 0.77699,-26.68833 0.24594,-15.59013 0.77478,-25.89211 1.35909,-26.4758 2.07987,-2.07768 6.63919,6.00003 15.82586,28.03849 3.35041,8.03751 7.12809,16.8023 8.39487,19.47733 2.19072,4.62611 2.41686,4.81195 4.62974,3.80476 1.2796,-0.5824 2.12725,-1.50963 1.88369,-2.06048 -0.24358,-0.55086 -1.8896,-4.57564 -3.65783,-8.94395 -8.83264,-21.82054 -12.31973,-30.09855 -15.71195,-37.29865 -2.03802,-4.32579 -3.37605,-8.16355 -2.97336,-8.52833 0.40267,-0.36478 2.91159,-1.36935 5.57538,-2.23238 13.5934,-4.40407 18.46318,-14.5337 13.37697,-27.82547 -2.06635,-5.40002 -4.37311,-8.35411 -9.35503,-11.98027 -5.10785,-3.71782 -8.33615,-4.79593 -15.94753,-5.32585 -11.83027,-0.82364 -11.12032,-2.52645 -10.64354,25.52813 0.2234,13.1451 0.63611,24.2718 0.91712,24.726 0.281,0.45422 0.6996,10.40592 0.93019,22.11493 0.54607,27.72819 1.2095,34.83786 3.25088,34.83786 0.54674,0 1.16256,-0.52559 1.36846,-1.16799 z"
       id="path3196"
       inkscape:connector-curvature="0" />
    <path
       style="fill:#dd5828;fill-opacity:1"
       d="m 186.00459,366.91325 c -0.24323,-0.6486 -0.53425,-8.7767 -0.64671,-18.06243 -0.24904,-20.56193 -0.39364,-20.30253 8.78734,-15.76507 7.7863,3.84818 12.09103,8.53708 14.00156,15.25112 1.64061,5.76544 1.24414,9.60482 -1.33813,12.9586 -2.28778,2.97129 -4.3284,4.0262 -8.69364,4.49422 -4.77162,0.5116 -8.97204,1.24588 -10.45689,1.82799 -0.66622,0.26117 -1.41031,-0.0558 -1.65353,-0.70443 z"
       id="path3198"
       inkscape:connector-curvature="0" />
    <path
       style="fill:#ffffff;fill-opacity:1"
       d="m 241.07246,433.58015 c 2.62201,-0.0127 2.66947,-0.10237 4.1114,-7.76796 0.80233,-4.26532 2.27312,-15.58076 3.26844,-25.14541 0.99531,-9.56466 1.97518,-17.91904 2.17749,-18.5653 0.55137,-1.76127 3.88115,-1.41479 4.51696,0.47001 0.30522,0.90476 1.593,3.33705 2.86175,5.40508 1.26875,2.06804 4.32717,8.06281 6.79648,13.32173 3.47622,7.40334 10.79305,20.82197 12.91577,23.68677 0.66511,0.89763 4.8048,-1.01682 4.3945,-2.03229 -0.25237,-0.62461 -2.0283,-5.15422 -3.94651,-10.0658 -4.6505,-11.9076 -9.25743,-21.34909 -15.13633,-31.02051 -3.80755,-6.26383 -4.64233,-8.26985 -3.86379,-9.28477 0.54621,-0.71205 6.57226,-6.32926 13.39122,-12.48268 6.81897,-6.15342 12.62832,-11.58994 12.90968,-12.08114 0.47798,-0.83446 -0.0796,-2.32332 -2.08606,-5.56987 -0.8841,-1.43056 -3.89181,0.84405 -11.92211,9.01622 -5.70968,5.81055 -15.7285,14.42198 -16.779,14.42198 -0.68451,0 -0.91105,-5.70731 -0.77423,-19.50531 l 0.19341,-19.50532 -3.92042,0 -3.92042,0 -0.59974,5.17008 c -0.32985,2.84355 -0.84227,8.34264 -1.1387,12.2202 -1.04482,13.66715 -1.21952,15.59244 -2.21766,24.4404 -0.55407,4.91158 -1.32212,13.16021 -1.70677,18.3303 -0.61742,8.29884 -3.93128,33.91693 -5.70329,44.08977 -0.61554,3.53377 -0.56231,3.64694 1.4431,3.06789 1.14522,-0.33068 3.2759,-0.60702 4.73483,-0.61407 z"
       id="path3200"
       inkscape:connector-curvature="0" />
  </g>
</svg>
